<?xml version="1.0" standalone="no"?>
<!DOCTYPE svg PUBLIC "-//W3C//DTD SVG 20010904//EN"
 "http://www.w3.org/TR/2001/REC-SVG-20010904/DTD/svg10.dtd">
<svg version="1.0" xmlns="http://www.w3.org/2000/svg"
 width="260.000000pt" height="260.000000pt" viewBox="0 0 260.000000 260.000000"
 preserveAspectRatio="xMidYMid meet">
<metadata>
Created by potrace 1.11, written by Peter Selinger 2001-2013
</metadata>
<g transform="translate(0.000000,260.000000) scale(0.100000,-0.100000)"
fill="#000000" stroke="none">
<path d="M1155 2310 c-55 -4 -120 -13 -145 -19 -197 -53 -256 -73 -360 -123
-230 -111 -430 -296 -526 -486 -13 -26 -28 -54 -33 -62 -17 -28 -49 -125 -60
-185 -7 -33 -16 -79 -21 -103 -13 -54 -13 -154 -1 -201 5 -20 14 -61 21 -91 6
-30 16 -73 21 -95 16 -61 110 -241 147 -281 17 -20 32 -39 32 -43 0 -11 149
-161 160 -161 5 0 22 -13 37 -28 38 -39 211 -140 286 -167 34 -12 85 -31 112
-43 185 -75 572 -90 835 -30 40 9 69 19 145 48 11 5 40 16 65 25 64 24 113 46
130 61 8 6 33 22 55 34 146 81 282 219 407 414 11 17 44 94 68 160 110 306 35
669 -193 929 -65 75 -146 151 -175 166 -15 7 -40 26 -57 41 -41 38 -233 134
-330 164 -218 69 -401 91 -620 76z m768 -362 c52 -30 57 -39 57 -104 0 -59 -2
-64 -24 -70 -41 -10 -67 -104 -28 -104 9 0 23 -9 30 -20 7 -11 18 -20 25 -20
30 0 54 -46 67 -130 18 -110 17 -174 -2 -287 -18 -103 -23 -115 -46 -111 -15
3 -17 -12 -20 -136 -2 -86 1 -143 8 -150 15 -15 13 -279 -2 -294 -15 -15 -84
-16 -93 -2 -3 6 -39 10 -78 10 -69 0 -71 1 -42 14 17 8 38 17 48 20 15 5 17
21 17 155 0 89 -4 152 -10 156 -5 3 -10 28 -10 55 0 27 -4 52 -10 55 -6 3 -10
50 -10 104 0 63 -5 108 -13 125 -17 31 -27 24 -27 -21 0 -18 -5 -33 -11 -33
-6 0 -10 -12 -9 -27 4 -50 0 -63 -15 -63 -12 0 -15 14 -15 69 0 39 5 73 10 76
6 3 10 22 10 41 0 19 5 34 10 34 6 0 10 15 10 33 0 18 4 37 9 43 5 5 11 59 13
121 3 111 3 112 36 145 37 39 41 71 12 91 -19 13 -21 23 -18 107 3 92 3 94 33
111 36 21 58 23 88 7z m-1105 -449 c91 -28 112 -37 112 -49 0 -5 -10 -10 -22
-10 -13 0 -28 -4 -34 -8 -6 -4 -14 -52 -17 -107 -4 -55 -9 -135 -13 -177 l-7
-78 36 0 c26 0 39 -6 47 -19 17 -33 2 -47 -63 -60 -34 -7 -90 -24 -125 -38
-35 -14 -65 -23 -68 -20 -2 2 1 28 7 56 6 29 8 55 5 58 -3 3 -28 -15 -55 -39
-76 -68 -180 -87 -245 -45 -60 40 -55 193 10 287 19 27 34 53 34 57 0 4 12 20
27 35 23 24 25 30 13 39 -8 5 -26 9 -40 8 -62 -3 -72 6 -50 41 8 12 32 14 137
12 70 -2 130 -5 132 -7 2 -2 -9 -26 -24 -52 -78 -135 -105 -222 -91 -296 8
-41 30 -53 69 -38 27 11 81 111 105 196 15 54 32 173 32 229 0 25 5 46 10 46
6 0 41 -9 78 -21z m498 7 c131 -28 207 -114 175 -199 -12 -32 -40 -41 -119
-40 -68 2 -126 28 -137 63 -11 36 17 74 65 89 25 8 52 16 60 19 22 6 -47 30
-90 31 -53 0 -122 -38 -142 -79 -29 -59 -17 -278 20 -370 17 -44 49 -65 80
-54 24 8 27 15 30 65 4 73 -10 107 -48 121 -21 7 -30 16 -28 27 3 14 19 16
128 13 69 -2 128 -7 133 -11 4 -4 1 -27 -8 -50 -8 -24 -15 -67 -15 -96 0 -57
-3 -60 -90 -91 -203 -72 -303 -56 -360 56 -40 78 -33 264 13 361 37 79 83 117
172 145 52 16 86 16 161 0z"/>
<path d="M1960 1376 c0 -53 4 -98 10 -101 6 -3 10 -17 10 -31 0 -13 5 -24 10
-24 6 0 10 22 10 49 0 28 5 53 10 56 6 3 10 21 10 40 0 19 -4 37 -10 40 -5 3
-10 19 -10 36 0 22 -5 29 -20 29 -19 0 -20 -7 -20 -94z"/>
<path d="M1890 925 c0 -8 5 -15 10 -15 6 0 10 7 10 15 0 8 -4 15 -10 15 -5 0
-10 -7 -10 -15z"/>
<path d="M1910 665 c0 -63 4 -115 8 -115 27 0 45 71 22 85 -5 3 -10 37 -10 76
0 39 -4 69 -10 69 -6 0 -10 -45 -10 -115z"/>
</g>
</svg>
